<svg width="93" height="105" viewBox="0 0 93 105" fill="none" xmlns="http://www.w3.org/2000/svg">
<path d="M8.4225 93.7162L0 0H92.58L84.1462 93.7013L46.2337 104.125L8.4225 93.7162Z" fill="#1572B6"/>
<path d="M46.29 96.1594L76.9275 87.7364L84.135 7.66431H46.29V96.1594Z" fill="#33A9DC"/>
<path d="M46.29 41.6165H61.6275L62.685 29.8467H46.29V18.3521H75.3525L75.075 21.4349L72.2288 53.1112H46.29V41.6165Z" fill="white"/>
<path d="M46.3612 71.467L46.3087 71.4818L33.4012 68.0234L32.5762 58.8567H20.9399L22.5637 76.9038L46.3049 83.4413L46.3612 83.4265V71.467Z" fill="#EBEBEB"/>
<path d="M60.6413 52.624L59.2463 68.0159L46.3201 71.4744V83.4339L70.0801 76.9037L70.2563 74.9626L72.2701 52.624H60.6413Z" fill="white"/>
<path d="M46.3312 18.3521V29.8467H18.3337L18.1012 27.2622L17.5724 21.4349L17.2949 18.3521H46.3312ZM46.2899 41.6165V53.1112H33.5437L33.3112 50.5267L32.7862 44.6994L32.5087 41.6165H46.2899Z" fill="#EBEBEB"/>
</svg>
