<svg width="93" height="105" viewBox="0 0 93 105" fill="none" xmlns="http://www.w3.org/2000/svg">
<path d="M8.42625 94.5038L0 0H92.5875L84.15 94.4888L46.2375 105L8.42625 94.5038Z" fill="#E44F26"/>
<path d="M46.2937 96.9675L76.9312 88.4738L84.1387 7.72876H46.2937V96.9675Z" fill="#F1662A"/>
<path d="M46.2937 42.7762H30.9562L29.8987 30.9074H46.2937V19.3162H17.2312L17.5087 22.4287L20.355 54.3674H46.2937V42.7762ZM46.2937 72.8774L46.2412 72.8924L33.3337 69.4087L32.5087 60.1649H20.8725L22.4962 78.3599L46.2412 84.9524L46.2937 84.9374V72.8774Z" fill="#EBEBEB"/>
<path d="M46.2524 42.7762V54.3674H60.5249L59.1824 69.4012L46.2524 72.8887V84.9487L70.0162 78.3599L70.1887 76.4024L72.9112 45.8887L73.1962 42.7762H46.2524ZM46.2524 19.3162V30.9074H74.2499L74.4824 28.3049L75.0112 22.4287L75.2887 19.3162H46.2524Z" fill="white"/>
</svg>
