<svg width="105" height="105" viewBox="0 0 105 105" fill="none" xmlns="http://www.w3.org/2000/svg">
<path d="M0 0H105V105H0V0Z" fill="#F5DE19"/>
<path d="M70.5338 82.0312C71.4284 83.8485 72.8183 85.3759 74.5434 86.4375C76.2684 87.4991 78.2584 88.0515 80.2838 88.0313C84.3713 88.0313 86.985 85.9875 86.985 83.1562C86.985 79.7812 84.3 78.5738 79.8 76.605L77.3325 75.5475C70.2075 72.5138 65.4825 68.715 65.4825 60.6825C65.4825 53.2838 71.1075 47.6475 79.9313 47.6475C82.7877 47.4412 85.6416 48.0805 88.137 49.4856C90.6324 50.8907 92.659 52.9994 93.9638 55.5488L86.25 60.48C85.7476 59.216 84.8728 58.1345 83.7416 57.379C82.6105 56.6236 81.2764 56.2298 79.9163 56.25C79.3229 56.1906 78.7236 56.2555 78.1567 56.4404C77.5897 56.6254 77.0675 56.9265 76.6234 57.3244C76.1792 57.7224 75.8228 58.2085 75.5769 58.7518C75.331 59.2951 75.2009 59.8837 75.195 60.48C75.195 63.4388 77.0288 64.6388 81.2625 66.48L83.73 67.5375C92.115 71.1338 96.855 74.7975 96.855 83.0363C96.855 91.92 89.8763 96.7875 80.505 96.7875C76.8537 97.0201 73.213 96.1912 70.0223 94.4005C66.8317 92.6099 64.2274 89.9342 62.5238 86.6963L70.5338 82.0312ZM35.6775 82.8863C37.2263 85.635 38.6363 87.96 42.0263 87.96C45.2663 87.96 47.3138 86.6925 47.3138 81.7612V48.21H57.18V81.8925C57.18 92.1075 51.18 96.7575 42.4463 96.7575C39.3591 96.9263 36.2931 96.1569 33.6513 94.5506C31.0096 92.9442 28.9157 90.5761 27.645 87.7575L35.6775 82.8863Z" fill="black"/>
</svg>
