<svg width="29" height="29" viewBox="0 0 29 29" fill="none" xmlns="http://www.w3.org/2000/svg">
<path d="M14.4 0C6.447 0 0 6.447 0 14.4C0 22.353 6.447 28.8 14.4 28.8C22.353 28.8 28.8 22.353 28.8 14.4C28.8 6.447 22.353 0 14.4 0ZM10.875 20.3685H7.959V10.9845H10.875V20.3685ZM9.399 9.8325C8.478 9.8325 7.8825 9.18 7.8825 8.373C7.8825 7.5495 8.496 6.9165 9.4365 6.9165C10.377 6.9165 10.953 7.5495 10.971 8.373C10.971 9.18 10.377 9.8325 9.399 9.8325ZM21.525 20.3685H18.609V15.168C18.609 13.9575 18.186 13.1355 17.1315 13.1355C16.326 13.1355 15.8475 13.692 15.636 14.2275C15.558 14.418 15.5385 14.688 15.5385 14.9565V20.367H12.621V13.977C12.621 12.8055 12.5835 11.826 12.5445 10.983H15.078L15.2115 12.2865H15.27C15.654 11.6745 16.5945 10.7715 18.168 10.7715C20.0865 10.7715 21.525 12.057 21.525 14.82V20.3685V20.3685Z" fill="#666666"/>
</svg>
