<svg width="113" height="101" viewBox="0 0 113 101" fill="none" xmlns="http://www.w3.org/2000/svg">
<path d="M92.9008 32.7027C91.6983 32.2886 90.4857 31.905 89.2639 31.5522C89.4692 30.7106 89.6581 29.8791 89.8258 29.0622C92.5791 15.6483 90.7792 4.84172 84.6313 1.28369C78.7368 -2.12728 69.0969 1.42943 59.3611 9.93336C58.4016 10.773 57.4634 11.6368 56.5474 12.5239C55.9342 11.934 55.3101 11.3555 54.6756 10.7888C44.472 1.6961 34.2445 -2.13614 28.1033 1.43209C22.2141 4.85368 20.4703 15.0126 22.949 27.7253C23.1956 28.9844 23.4741 30.2369 23.7841 31.4818C22.3364 31.8947 20.9395 32.3341 19.6026 32.8019C7.63967 36.9881 0 43.5482 0 50.3528C0 57.3808 8.20153 64.4299 20.6614 68.7043C21.6715 69.0494 22.6901 69.3692 23.7161 69.6633C23.3829 71.0041 23.0871 72.354 22.829 73.7113C20.4659 86.2034 22.3112 96.1222 28.1845 99.5221C34.2507 103.033 44.4322 99.4247 54.3458 90.7267C55.1497 90.0196 55.9359 89.2924 56.7036 88.5459C57.6956 89.5065 58.7141 90.4392 59.7579 91.3429C69.3612 99.6364 78.8454 102.985 84.713 99.5762C90.7734 96.0549 92.7432 85.3994 90.186 72.4355C89.9845 71.4199 89.7586 70.4093 89.5084 69.4046C90.2235 69.192 90.9252 68.9732 91.6094 68.7455C104.563 64.4384 112.991 57.4747 112.991 50.3528C112.991 43.5234 105.104 36.919 92.9008 32.7027ZM90.0915 64.1473C89.4736 64.3524 88.8398 64.5504 88.1936 64.7431C86.7636 60.1995 84.8339 55.3683 82.4721 50.3763C84.7258 45.5035 86.5813 40.7339 87.9712 36.2199C89.1271 36.5557 90.2486 36.9097 91.33 37.2831C101.786 40.8961 108.164 46.2371 108.164 50.3528C108.164 54.7366 101.276 60.4276 90.0915 64.1473ZM85.4509 73.3764C86.5817 79.1086 86.7428 84.2915 85.9938 88.3435C85.3212 91.9843 83.9679 94.4114 82.2943 95.3838C78.7337 97.4525 71.1188 94.7636 62.9062 87.6706C61.9354 86.8304 60.988 85.9633 60.0651 85.0703C63.2492 81.5756 66.431 77.513 69.5365 73.0008C74.9989 72.5144 80.1594 71.7188 84.8392 70.633C85.0646 71.5425 85.2686 72.4572 85.4509 73.3764ZM38.521 95.0263C35.0421 96.2591 32.2712 96.2946 30.5962 95.3253C27.0321 93.2623 25.5504 85.298 27.5715 74.615C27.8117 73.3526 28.0868 72.0972 28.3964 70.8501C33.0246 71.8778 38.1476 72.6167 43.6228 73.0623C46.7494 77.4776 50.0231 81.5357 53.3223 85.0893C52.6212 85.7702 51.9034 86.4337 51.1698 87.0792C46.7856 90.9252 42.3927 93.6539 38.521 95.0263ZM22.223 64.1203C16.7133 62.2301 12.1633 59.7738 9.04455 57.0933C6.24185 54.6848 4.82726 52.2931 4.82726 50.3528C4.82726 46.2234 10.961 40.9563 21.1915 37.3766C22.4331 36.9424 23.7324 36.5327 25.0808 36.1482C26.495 40.764 28.3496 45.5903 30.5878 50.4707C28.3205 55.4232 26.4394 60.3266 25.0115 64.997C24.075 64.7277 23.1452 64.4354 22.223 64.1203ZM27.6862 26.7946C25.5628 15.903 26.973 7.687 30.522 5.62491C34.3019 3.42861 42.6606 6.56005 51.4708 14.4115C52.0453 14.9246 52.6105 15.4482 53.1661 15.9818C49.8832 19.5199 46.6395 23.548 43.5407 27.9371C38.2266 28.4314 33.1398 29.2252 28.463 30.2888C28.1749 29.131 27.9159 27.966 27.6862 26.795V26.7946ZM76.4254 38.8738C75.3207 36.9588 74.1751 35.0679 72.9893 33.2023C76.5944 33.6599 80.0486 34.2673 83.2922 35.0097C82.3185 38.1425 81.1048 41.4175 79.6761 44.7753C78.6317 42.7866 77.548 40.8191 76.4254 38.8738ZM56.5496 19.4442C58.7759 21.8651 61.0057 24.5677 63.1988 27.5003C58.7498 27.2894 54.2934 27.2885 49.8443 27.4976C52.0397 24.5921 54.2885 21.893 56.5496 19.4442ZM36.5463 38.9071C35.4377 40.8366 34.3742 42.7919 33.3565 44.7713C31.9512 41.4254 30.7485 38.1354 29.7664 34.9583C32.9902 34.2345 36.428 33.6427 40.0102 33.1935C38.8111 35.0704 37.6562 36.9753 36.5463 38.9066V38.9071ZM40.113 67.8569C36.4121 67.4422 32.9226 66.881 29.6998 66.1766C30.6973 62.9429 31.9265 59.5828 33.3623 56.1652C34.3839 58.1461 35.4519 60.1025 36.5653 62.033C37.7102 64.0175 38.8957 65.9613 40.113 67.8569ZM56.6829 81.6026C54.3948 79.1255 52.113 76.3847 49.8845 73.4371C52.0481 73.5222 54.2536 73.5656 56.4953 73.5656C58.7984 73.5656 61.075 73.5137 63.3158 73.4136C61.1156 76.4144 58.8942 79.1591 56.6829 81.6026ZM79.7215 55.9907C81.2319 59.4459 82.5048 62.7883 83.5155 65.9667C80.2397 66.7171 76.7026 67.3213 72.9756 67.77C74.1699 65.8699 75.3263 63.9461 76.4443 61.9998C77.581 60.0214 78.6737 58.0179 79.7215 55.9907ZM72.2633 59.5793C70.5517 62.5634 68.7439 65.4908 66.8428 68.357C63.399 68.6018 59.9477 68.7234 56.4953 68.7216C52.9789 68.7216 49.5588 68.6117 46.2653 68.3973C44.3145 65.5378 42.4722 62.6052 40.7424 59.6059H40.7428C39.0211 56.6224 37.413 53.5744 35.9218 50.4685C37.4092 47.3618 39.0125 44.3124 40.7283 41.3266L40.7278 41.3271C42.443 38.3406 44.2705 35.4206 46.2066 32.5733C49.5667 32.3181 53.0125 32.1853 56.4949 32.1853H56.4953C59.9936 32.1853 63.4438 32.3195 66.8031 32.5764C68.7195 35.4194 70.5354 38.3294 72.2474 41.3009C73.9689 44.2801 75.5934 47.3146 77.1183 50.3998C75.6091 53.5165 73.9897 56.5783 72.2633 59.5793ZM82.2206 5.4805C86.004 7.67061 87.4755 16.5023 85.0983 28.0841C84.9464 28.823 84.7761 29.5756 84.5907 30.3389C79.9025 29.2527 74.8122 28.4452 69.4826 27.9433C66.378 23.5059 63.1609 19.4717 59.9314 15.9792C60.7778 15.1603 61.6443 14.3627 62.5302 13.5871C70.8721 6.30135 78.6684 3.42462 82.2206 5.4805ZM56.4953 40.2263C62.0676 40.2263 66.585 44.7602 66.585 50.3528C66.585 55.9455 62.0676 60.4794 56.4953 60.4794C50.923 60.4794 46.4056 55.9455 46.4056 50.3528C46.4056 44.7602 50.923 40.2263 56.4953 40.2263Z" fill="#00D8FF"/>
</svg>
