<svg width="98" height="98" viewBox="0 0 98 98" fill="none" xmlns="http://www.w3.org/2000/svg">
<path d="M94.5436 10.322L74.3626 0.606029C73.223 0.0565225 71.9406 -0.124815 70.6932 0.087154C69.4458 0.299123 68.2953 0.893898 67.4011 1.78903L1.33865 62.017C0.537114 62.7443 0.0573204 63.7603 0.00481051 64.8413C-0.0476994 65.9223 0.331375 66.98 1.05865 67.7815C1.14615 67.876 1.23365 67.967 1.32815 68.051L6.72165 72.951C7.42642 73.5925 8.33359 73.9668 9.28562 74.009C10.2376 74.0512 11.1744 73.7586 11.9331 73.182L91.5056 12.842C92.1067 12.386 92.8231 12.1067 93.5742 12.0357C94.3254 11.9647 95.0814 12.1048 95.7572 12.4401C96.4331 12.7755 97.0019 13.2929 97.3997 13.934C97.7974 14.5751 98.0083 15.3145 98.0086 16.069V15.8345C98.0086 14.6827 97.6833 13.5543 97.0704 12.5791C96.4574 11.6039 95.5816 10.8215 94.5436 10.322Z" fill="#0065A9"/>
<path d="M94.5436 87.1121L74.3626 96.8316C73.2226 97.3795 71.9406 97.56 70.6936 97.3481C69.4466 97.1362 68.2962 96.5423 67.4011 95.6486L1.33865 35.4171C0.537114 34.6898 0.0573204 33.6738 0.00481051 32.5928C-0.0476994 31.5117 0.331375 30.4541 1.05865 29.6526C1.14615 29.5581 1.23365 29.4671 1.32815 29.3831L6.72165 24.4831C7.42713 23.8389 8.33639 23.463 9.29076 23.4207C10.2451 23.3785 11.184 23.6727 11.9436 24.2521L91.5056 84.5921C92.1067 85.0481 92.8231 85.3274 93.5742 85.3984C94.3254 85.4694 95.0814 85.3293 95.7572 84.994C96.4331 84.6586 97.0019 84.1412 97.3997 83.5001C97.7974 82.859 98.0083 82.1195 98.0086 81.3651V81.6171C98.0049 82.7658 97.6779 83.8904 97.0652 84.8621C96.4524 85.8338 95.5786 86.6135 94.5436 87.1121Z" fill="#007ACC"/>
<path d="M74.3625 96.8315C73.2224 97.3794 71.9404 97.5599 70.6934 97.348C69.4464 97.1361 68.296 96.5422 67.401 95.6485C67.9036 96.1445 68.5414 96.4812 69.2346 96.6163C69.9277 96.7514 70.6453 96.679 71.2974 96.408C71.9496 96.1371 72.5072 95.6797 72.9006 95.0932C73.2939 94.5067 73.5053 93.8171 73.5085 93.1109V4.32295C73.5091 3.61346 73.299 2.91976 72.9051 2.32972C72.5111 1.73969 71.9508 1.27986 71.2953 1.0085C70.6397 0.737135 69.9184 0.666445 69.2226 0.805381C68.5269 0.944318 67.888 1.28663 67.387 1.78895C68.2813 0.894147 69.4316 0.299335 70.6787 0.0867766C71.9258 -0.125781 73.2082 0.0544182 74.3485 0.602454L94.526 10.3045C95.5671 10.8015 96.4466 11.5827 97.0628 12.5581C97.679 13.5335 98.0068 14.6632 98.0085 15.817V81.617C98.0087 82.7698 97.6833 83.8992 97.0696 84.8751C96.456 85.851 95.5791 86.6337 94.54 87.1329L74.3625 96.8315Z" fill="#1F9CF0"/>
</svg>
